<?xml version="1.0" encoding="UTF-8"?><svg id="New_Zealand" xmlns="http://www.w3.org/2000/svg" width="750.44" height="1061.47" viewBox="0 0 750.44 1061.47"><defs><style>.cls-1{fill:#e9d7fe;stroke:#774fb2;stroke-miterlimit:10;}</style></defs><path class="cls-1" d="M73.32,1033.6l.71-1.23,1.4-.96,1.36-.16,.57,1.16-.77,.73-1.45,1.06-1.34,.45-.48-1.04Zm17.21-38.95l-.68,.66-.9,.29-.78-.3-.39-1.13,.24-1.15,.7-.58,.87-.11,.79,.21,.77,.65-.62,1.46Zm52.16-4.47l.93,1.92-.72,1.79-1.24,1.42-.55,.82,.27-.91-.39-.77-.65-.83-.48-1.09,.91-.1,.86-.38,.69-.73,.37-1.15Zm-23.13,27.32l2.68,1.83,.77,.85,.1,.55-.45,.28-.62,.09-.45-.03-.32-.3-.45-1.13-.45-.35-1.31-.09-.31,.62,.37,2.14-.66,.44-2.04-.9,.68,1.35h-4.42l-3.68,.64-1.48,.69-3.7,3.49-1.1,1.45-.79,.64-1.05-.03-1.03-.48-.78-.72-.93-.51-2.15,.36-.73-.11-.58-1.05-.38-1.25-.49-.63-1.23,1.15-.99,.25-.45,.3-.02,.32-.39,2.11-.94-.69-3.04,2.46-1.72,.61,1.06,1.16,1.85-.35,3.6-1.41-.71,1.67-.67,1.12-1.86,2.03v-2.13l-.74,.03-1.04,1.12-.85,1.25-1.08,.6-1.99,.48-2.03,.14-1.21-.4-.33-1.69,.38-2.21,.72-2.12,.68-1.38,.6-.57,1.16-.17,1.2-.97,2.05-1.02-1.02-.72v-.8l.4-.91,.29-1.09-.09-1.32-.2-1.01v-.96l.45-1.22,.6-.88,.62-.57,1.4-.96,.97-.36,.77,.23,.7,.38,.8,.07,1.02-1.17-.22-2.08-.46-2.31,.28-1.87,.73-.46h1.74l.78-.7,.98-1.71,.33-.94,.14-1.2-.31-1.96-.78-1.85-2-3.04-.36-.94,.25-.76,.46-.64,.23-.63-.02-.56-.1-.42-.19-.37-.27-.42-.25-.63,.1-.49,.24-.43,.13-.48,.33-2.43,.82-1.25,1.32-.44,1.8-.06,1.59,.59,.91,.15,.77-.44,.82-.86,.67-.15,2.78,1.45,1.13,.97,1.03,1.18,5.28,7.5,.84,.87,1,.7,.84,.8,.34,1.18,.73,.24,1.35,.8,.71,1.09-1.16,1.11,1.21,.65v.54l-1.47,.54-5.38-.54,.41-1.19-3.34-.13-1.12,.58,.6,1.68-.17,.96-2.89,4.08,1.5-.18,2.06-2.68,1.3-.69,.6,.27,1.63,1.23,1.5,.41,2.33,1.04-.23,.61-.21,.45-.29,.36-.47,.3v.59l.68,.03,3.19-1.17,.76-.05,.79-.47,.45-.14,.2,.35,.18,.68,.45,.63,.52,.47,.46,.26-.29,.83-.37,2.2-.15,.58-.67,.42-.66-.08-.7-.25-.81-.08v.59Zm-88.12-122.77l1.11,.87,.79,1.62,.49,1.95,.17,1.82-.24,1.86-.67,1.35-1.04,.77-1.32,.18-.13-.44-.43-.86-.48-.43-.41,1.53-.48,.33-.55,.03-.43-.17-.35-.89-.32-1.68-.17-1.71,.07-.98-.84-1.6-1.03,.13-3.69,4.38-.95,.69-1.25,.44,.31-1.12,.56-1.54,.71-1.37,.68-.59,.17-.26,.68-1.3,.46-1.25,.71-.19,1.49,.05,4.74-1.65,1.1-.07,.53,.1Zm15.53-38.21l.54,3.04,.85,2.84,2.21,5.66-1.98,.38-.8-.22-1.04-1.08-.96-.6-1.29-.44-1.16-.61-.48-1.16-.64-1.06-.14-.66,.6-.29-.12-.37,.39-.82,3.58-5.75v.41l.12,.24,.15,.21,.17,.29Zm131.42,123.79l-.74-.2-.54,.61,.05,1.93-.74,.6-.11,.42-.16,.42-.36,.2h-1.81l-1.06-.36-.62-.79-.39-.82-.41-.44-.76,.1-.02,.76,.18,1.06-.21,1.08-1.59,.94-2-.53-2.03-1.03-1.66-.55-1.92,.07-1.09-.18-.69-1.02-1.49-5.41-.1-.86-.34-.98h-.81l-1.74,.66-6.07,1.2-2.02-.02,.49-.91,.71-.29,.82-.13,.81-.42-1.19-.73-1.49-.35-2.95-.1,.47,1.21,.77,.77,.35,.65-.77,.9,.22,.26,.38,.65,.21,.27-3.18,1.06-10.2-1.06,.75-1.49,.34-.43,.49-.39,.85-.28,2.12,.04,.72,.24,.61,.98,1.71,.35,1.06-.49-1.36-1.49-1.72-.7-5.16,.13-2.38-1.53-1.19-.27-.51,1.51,.37,1.75,1.8,2.33,.69,1.56-1.62-.29-2.15-2.65-1.34-.65-.21-.37-.11-.81-.36-.81-1.56-.52-.44-.49-.25-.76-.12-.99,1.82-.57,.64,.03,.62,.21,.11,.24v.38l.28,.61,.38-.58,3.1-2.62,.55-2.3-.41-2.78-1.1-2.03h-1.5l.48,2.18-.6,2.01-1.14,1.23-1.2-.14-.69-1.18-1.23-3.55-3.16-5.93-.99-1.07-1.67-.45-5.8,1.04-.85,.46-.03,1,.21,1-.15,.46-.86-.28-1.05-.51-1.01-.33-.74,.3-1.79-.29-1.14,.04-.5,.82-.33,.9-.7,.23-.71-.11-.61-.22-.84-.45-.46-.08-.4,.19-.9,.81-.35,.17-.68-.29-.58-.59-.55-.84-.66-.33-.53-.76-.84-1.59-.57-.58-1.39-.82-.71-.6,.82-.5,.81-.34,.71-.51,.56-1.04-3.03-4.06-1.47-2.47v-1.71l-.9-.79-2.41-.25-1.19-.39-2.79-1.85-.86-.23-6.78-.74-.48,.17-.36,.61-.05,1.39-.22,.65-.68,1.34-.24,1.18-.12,1.14-.35,1.27-.77,1.05-.91,.27-2-.15-.97,.32-1.8,1.15-.87,.33-1.18-.13-2.43-.95-1.28-.09-.98,.28-.47,.25-.37,.34-.41,.25-.33-.34-.26-.52-.22-.27-.68-.17-3.79-1.81-1.01,.03-1,.18-1.02-.04-4.04-1.12-8.13,.21-3.96-.71-3.34-2.47-1.77-2.4-.27-.81,.36-.55,1.68-.77,.6-.46,2.27-2.6,2.03-2.92,1.67-3.99,.95-1.73,1.22-.74,1.74-.44,2.71-2.25,1.46-.9v-.53l-1.29,.19-3.6,2.19-2.58,.97-1.39,.81-.88,1.09-.22,.97,.14,.62,.18,.56-.1,.82-.25,.18-1.85,2.04-.11,.35-.15-.03-.52-.74,.05-.43,.24-.65v-.71l-.66-.63-.79,2.67-1.87,1.1-4.29,.94v-1.48l.2-1.36,.52-.66,.93,.59,.2-2.73,.66-1.85,1.13-1.31,1.66-1.1,3.57-.86,1.54-.75,.99-1.93-2.03,1-2.06,.69-.82-.07-1.13-.31-.92-.47-.16-.54,3.23-3.99,.53-.89,.12-.65-.59-.68-.67,.13-.66,.55-.54,.59-.24,.39-.25,.57-.2,.61-.07,.47-1.1,.79-.36,.37-1.61,2.66-.21,.84-.88,.94-5.63,1.68-.78,.49-1.4,1.55-.45,.33-.43-.45-.45-1-.32-1.07v-.69l.22-.99-.08-1.15-.32-1.69,.02-7.65,.39-1.97,.97-.83,3.84-.58h4.09l-.44,.58,.44,.64,1.46-1.27,1.75-.51,3.69-.02,1.52-.27,3.15-1.2,1.62-.27,1.75,.31,.81-.04,.68-.55,.49-.64,.57-.56,1.17-.89,2.87-1.28,1.25-.99,.73-1.77-2.53,1.01-.91,.15-4.25-.52-5.53,1.63-1.38-.47,1.1-2.48,.71-.91,1.03-.72,3.15-.94,.92-.8-5.7,.86-1-.28-.45-2.03,.04-1.87,.67-1.39,1.37-.54,1.59-.37,2.97-1.59,1.74-.3,3.12,1.12,1.64,.1,1.27-1.21-2,.05-.9-.34-.72-.92,3.83-1.22,1.74-1.31,.51-2.13-7.88,4.2-4.87,.99-3.26,1.85-.65,.07-1.29,.37-.68,.08-1.04-.11-.48-.34-.72-1.54v-1.27l2.2-4.81,1.06-5.08,.6-1.32,2.65-1.41,2.89,1.22,2.86,1.89,2.56,.61-.67-2-.92-2.08-.92-.76-.72,1.96-1.09-.89-2.33-1.21-1.05-.77-.77-.97-.19-.92,.34-1.06,.81-1.39,2.01-2.16,1.29-1,.57,.29,.47,1.43,1.11,1.07,2.46,1.21-.54,.41-.48,.51-.38,.64-.22,.8,1.89-.22,1.66-.8,1.6-.15,1.68,1.74,.43,.79,.25,.74-.11,.83-.56,1.08-1.52,1.21-.64,.79,.55,.36,2.01-.12,.71-.44,.77-.91,.41-1.08,.24-1.1,.43-.45,1.61,1.48,.74,.5,.6,.69,.39,1.98,1.06,2.86,.26-.22,.15-.3,.45,.33,.77,.42,.39,.41-.33-2.76-3.07-4.04-5.98-5.99,.86-1.17,1-.57,6.02-1.82,1.09,.11,.6,.67,1.03,2.03,.83,.75,1.1,.38,1.22,.04,1.07-.47,.65-1.11-.95-.3-2.08,.11-.83-.61-.58-.89-.16-.39,.11-1.6,.34-.91,.51-.38v-.1l-2.23,.04-2.26,1.07-1.5,.39-4.83,.51-1.02-.61-.13-1.11-.53-1.68-.36-1.68-1.08-.92-.26-.96-.16-3.75,.42-1.4,1.33-.9,1.76,.04,1.4,1.02,2.31,3.26,.68,.55,1,.37h.92l.46-.61-.32-.53-2.14-1.81-2.15-2.82-1.24-1.07-1.46-.12,2.34-3.84,1.43-1.4,1.31,.33,2.24,3.77,.13,1.22-.1,1.11,.1,.94,.68,.74,.31-1.15-.17-1.69,.26-.65,.89-.41,3.59,.41-.9-1.06-3.36-1.26-1.25-.82-1-1.37-.7-1.4-.09-1.38,.79-1.31,1.44-.55,1.52,.47,1.58,.8,1.56,.43,1.24,.66,1.47,1.26,1.32,.73,.84-.93-1.11-.32-7.13-4.16-.69-.71,.27-1.18,.99-1.16,2.96-2.56,.97-.52,1.11-.23,1.41-.07-.33-.37-.57-.93-.32-.4,4.56-2.75,1.95-.12,.81,2.58,.19,.37,.41,.48,.42,.62,.19,.81-.16,.8-.59,1.6-.07,.79,.47,1.13,.72,.86,.43,1.02-.4,1.56,2.2,.24,1.03-.18-.18-.91-.25-.46-.2-.59-.12-.65-.04-.61-.17-.5-1.23-1.21-.16-.84,.12-1.21,.03-1.33-.41-1.22-.43-.87-.86-2.7-.17-1.02,.73-2.87,1.74-1.85,2.14-.28,1.89,1.84,.42,1.12-.17,.57-.48,.6-.54,1.18-.29,1.54,.16,1.23,.6,.98,1.06,.82,.12-1.88,.51-1.24,.62-1.1,.46-1.48-.13-1.7-1.55-1.74-.39-1.45-.65-1.1-.13-.62,1.14-.59,.6-.6,.63-.34,.66,.45,1.11,1.6,.97,.99,1.1,.6,1.53,.46-1-.57-2.23-2.8-1.52-1.41-.26-.87,.49-1.19,.94-.78,3.14-.91,.42-.5,.48-1.19,.32-.53,.39-.25,1.01-.32,.43-.35,1.7-1.85,1.74-.74,1.75,.41,2.62,2.4,2,1.19,.78,.87,1.82,3.69,.42-.96,.13-1.24-.14-1.28-.41-1.06-.33-.33-1.33-.81-1.58-1.7-.36-.3-.29-.07-.29-.16-.31-.61-.09-.62,.09-2.22-.38-2.41-.36-1.22-.47-.95,1.4-2.04,4.91-5.63,1.72-1.55,2.14-1.5,1.48-1.9-.3-2.72h5.33l.55-.32,.71-1.43,.03-1.27-.19-.26,3.22-1.08,2.99-.18,2.09,.96,2.01,1.37,1.16,1.38,1.21,1.78,.62,1.68,.75,1.44-.51,1.94-.48,1.38-1.68,6.65-1.29,1.36-1.96,1.38-1.99,2.54-2.09,3.58-1.14,3.1-1.51,6.24,.17,3.01-.97,6.67-1.24,3.18,.31,3.15,.59,2.73,1.15,2.6,1.67,2.23,1.63,1.55,3.34,1.56,.18,1.59-2.19,7.1,.28,2.44,1,2.82,1.87,3.98,.1,2.33,.81,2.53,2.91,1.53,2.37,.13,3.9-.31,10.38-4.83,1.35,.74,1.74,4.25,3.78,5.42,1.46,2.95,2,.84,2.31,.36,2.59-1.23,6.5-9.49,2.66-1.44,2.14,1.27,5.42,6.06,1.05,3.59-2.5,2.35-4.11,10.87-3.66,7.53-.92,3.76-.35,2.7-.02,2.35,.13,1.52,.35,1.73,.27,2.96,1,1.15,1.76,1.62,.75,1.83,.25,2.15-.24,2.41,.06,2.51,.53,2.75,1.54,2.19,1.62,2.89,.65,2.91-.1,2.17,.66,2.37,1.9,4.72-.13,5.55-.39,2.47-.86,2.17-.43,2.62,.72,2.16,.5,2.28-.02,2.24,.3,1.83,2.45,3.37,.07,1.72-.72,2.22-1,1.86-.2,4.58Z"/><path class="cls-1" d="M485.65,527.08l.97,.15,.15,.59-.11,.89,.2,1.05-.44,1.02-.36,2.36-.4,.91-.88,.59-1.04,.06-1.1-.11-1.05,.05-.81,.42-1.46,1.32-.59,.4-.92,.17-3.01-.16,.02-.03,.29-.32,.64-.63,.19-.12,.64-.06,1.42,.14,.55-.35,3.05-3.48,1.01,1.04,1.31-.49,.96-1.31-.05-1.44-.74,.42-.72-.1-.6-.53-.37-.87,1.06-.09,.76-.54,.68-.63,.77-.35Zm-35.32-15.63l.69-.4,.38-.61,.04-.78-.3-.88-.64,.77-.17,.29-.34-.9-.11-.99,.11-.97,.34-.88,.9,.85,.69,.93,.81,.71,1.24,.18v-.5l-.73-.62-.65-.8-.47-1.03-.17-1.28,.14-1.15,.75-2.98,.32-.68,.32,.11,.08,.63,.17,.65,.64,.17,.22-1.07,.3-.73,.51-.34,.87,.48,.02,1.15-.16,1.41,.29,1.28,.45-.75,1.86-.61,.93-.82h-2.03l1.33-1.17,.55-.63,.54-.88,.65-2.23,.3-.47,.27,1.15-.02,1.12-.21,1.09-.58,2.02,.37,.79,.1,.52-.27,.23-.33,.21-.87,1.06-.26,.43-.18,.81-.22,2.02-.36,.91-.25,.08-1.19-.08-.35,.2-.7,.97-.35,.38-1.45,.54-.41,.23-.25,.52-.17,.55-.17,.36-.75,.54-.86,.38-.87,.05-.77-.43,.23-.27,.07-.27,.02-.27,.08-.32Zm-11.49,11.65l.75-.35,1.05,.4,.93,1.02,.6,1.39,.07,1.52h.41l.29-.75,.3-.25,.29,.25,.29,.75,.84-.53-.83-1.87,.84-.88,1.6-.52,1.41-.79,.46-.85-.06-.79-.47-.58-.74-.22-2.27,1.6-.37-.23-.02-1.05,.07-.42,.97-1.24,.51-.45,1.36-.7,.57-.45,.64-.31,3.01-.51,.31-.33,1.31-2.07,1.46-1-.22,3.61,1.42,.33,.22-.29,1.81-1.84,.15-.4,.16-1.01,.06-.25,.32-.21,.88-.28,2.91-1.61,.5-.08h.7l.7,.16,.49,.4,.64,2.06-1.02,.29-2.85-.75,.38,1.03-.35,.55-.56,.57-.28,1.09-.67-.25-.64-.03-.6,.26-.56,.56,.36,.47,.13,.31,.2,.2,.52,.11-.98,.95-1.92,.65-1.87,.05-.84-.86-.9-.13-1.7,.24-.9,.79,1.45,1.57-.84,.56-.59,.63,.03,.58,1,.38-.2,1-.38,.9-.52,.75-.55,.56,.49,.63,.68,.19,.61-.42,.26-1.23,1.37-2.01,.04-.37,3.9-.73,2.08-.09,1.53,.82-.64-.1-.52,.17-.33,.46-.12,.79-.2,.73-.48-.05-.55-.31-.42-.09-.3-.09-.41-.27-.36-.03-.15,.65,.06,.31,.3,.46,.07,.33-.09,.76-.26,.33h-.4l-.49-.29-.43,1.82-.85,.53-.93,.31-.62,1.16h.92l1.08,.47,.9,.81,.37,1.11-.13,.81-.58,1.75-.13,.95-.73,.91-1.69,.87-3.25,.96,.2,.89,.41,.62,.52,.38,.49,.21,6.26-3.71,2.23-.6v-.54l-.87-.28-.79,.03-.66-.13-.47-.69,2.48-.32,1.25,.04,.92,.55,.93,.36,1.44-.18,1.43-.46,.92-.51-.36-.24-.92-.9,3.51,.35,1.7-.47,1.29-1.42-6.67,.17-1.02,.32-.15,.25v.35l-.13,.33-.54,.13h-.4l-.27-.06-.25-.15-.32-.27,.41-1.06-3.18,1.36-1.56-.08-.52-2.41,.3-1.25,.62-.74,.76-.53,.75-.66,.12-.49-.12-.56-.03-.42,.44-.18,.52-.08,.29-.24,.09-.5-.09-.81,2.06,.49-.62,1.25-.15,1.21,.34,2.42,1.04-1.9,.51-1.5,.77-.88h1.79l-1-1.55-.27-.77,1.01-1.6,.04-1.16-.49-.87h-.97l-.39,.75-.24,1.23-.38,.83-.78-.38-1.82-2-.44-.92h2.06l-.48-1.01-.07-.79,.4-.31,.92,.45,.11-1.65,1.02,.45,2.14,2.26,1.26,.86,1.24,.38,1.12-.38,.9-1.4,1.01,1.01,.99-.43,.58-1.25-.22-1.47,.9,.31,.93,.9,.74,1.18,.3,1.13v.92l-.07,.57-.3,.29-1.27,.21-.27,.33v.52l.29,.69,1.07,.93,1.15-.42,1-1.02,1.24-1.63,2.38-2.42,.85-.32,.45,1.01-.46,1.35-3.04,4.9-.35,.77-.06,1.53-.18,.68-.19-.19-.83,.47-.73,.6,.14,.19-.23,.2-.56,.33h-.57l-.26-.81v-3.21l-.18-.37-.4,.57-.42,.95-.2,.77-.89-.38-.02,.65,.44,1.04,.46,.79,1.24,1.36,.42,.7,.36,1.21-.27,.13-.75,.26-.19,.09-.02-.16-1.19,.75-.47,.51-.32,.51-.42,.42-.83,.17-3.1,.02-1.58,.46-.96,1.14-.71-.5-.71-.11-.62,.33-.42,.82-.92-.37-1.09,.29-1.06,.67-.83,.77-.18,.93,1.39-.04,1.66-.47,.62-.42,1.3,.44,.88-.36,.81-.74,1.06-.71,.67-.05,.64,.21,.64,.05,1.16-.78,1.23-.28,.55-.22,.62,.76,.81,.7,.85,.54,.75,.21,.73-.19,.86-.77,.62-.17,1.58-.21,1.25-.58,2.44-1.9-.74,1.98-.92,1.84-.44,.55-1.18,1.1-.58,.75-.29,.76-.21,.78-.4,.62-1.85,.5-1.41,1.15-.88,.26,.29-.79,1.01-1.71,.11-.48-.59-.2-1.23,1.25-.8-.21,.4-1.14-1.7,1.19-1.14,1.96-.94,2.27-1.11,2.11-1.41,1.9-.29,.98,.08,1.49,.64,2.41,.11,1.14-.39,1.31,1.11,.25,.7,.96,.27,1.05-.2,.49,.22,.31,.64,.42,.66-.21,.29-1.6-.31-.36-.54-1.61-.17-1.22,.83,.72,3.27,5.63,.1,1.13,.3,1.01,.25,.8,.36,1.48,.05,.84,1.24,4.34,.33,.52,.56,1.38,1.32,.79,1.49,.18,1.11-.43-.34,1.94-4.22,8.12-1.02,1.54-6.88,7.4-1.77-2.12-.29-.47-.66-.3-.85-.1-1.14,.11-1.72-.4-.77-.35-.77-.49-.94-.18-1.03,.1-4.95,1.07-1.19,.52-.74,.7-.74,.46-.55-.43-.57-1-.89-.95-1.08-.39-.71,.89-1.01,2.53-.93,.86-1.21,.81-1.02,.89-1.41,.89-1.15,.32-1.16,1.03-1.53,.88-3.78,3.35-1.64,4.54-.13,2.26-.6,1.23-.4,1.22-.81,.95-5.5,2.2-1.94,1.06-3.18,3.2-1.94,1.57-1.49,1.51-.71,1.15,1.57,1.11-.06,1.01-1.15,2.52-1.43,1.61-1.09,1.62-1.06,.72-1.14,.21-2.24,1.4-.78,.86h-1.11l-1.51-1.54-.88-.4-1-.31-.65-.56,.04-.98,.31-1.23,.09-1.15-2.29-1.88-.41-.65-.48-1.03-.78-1.06-.64-1.69-1.14-.56-1.08-.34-.93-.46-.5-.83,.12-1.19,.27-1.01-.13-1.15-.75-.95-.59-1.98-.18-1.28-.37-1.06-.73-.25-1.19-1.13-.91-.02-1.1-.24-1.06-.6-.98-2.58-.64-.35,2.05-6.9,5.97-7.63,.55-1.53,.65-4.25,.63-2.39,2.1-3.08,1-1.23,.25-1.04,.53-1.24,3.47-3.06,2.51-3.08,1.67-2.87,4.69-5.42,1.57-2.56,2.69-.77,1.43-.16,1.15-.63,.55-1.23-.26-1.76,.13-2.07,.3-1.71,.09-1.17,.55-1.97,1.52-.57,1.96-1.38,2.73-2.7,5.15-8.04,2.46-2.38,1.81-2.39,.94-1.5,1.01-2.75,.48-2.54,.04-1.41-.04-.57Z"/><path class="cls-1" d="M414.82,543.13l.51-.09,1.13-.57,2.19-1.92,2.05-1.26,1.02-1.13,2.28-3.23,3.68-3.65,1.47-.63,.66-1.15,.62-.25,.37,.25,.03,.62-.17,.72-.22,.56,2.04-.87,1-.68,.81-.87,.96-1.88,.48-.53,.52-.04,.51,.32,.5,.04,.48-.86-.6-.86,.54-1.09,1.04-.93,.11-.05,.04,.57-.04,1.41-.48,2.54-1.01,2.75-.94,1.5-1.81,2.39-2.46,2.38-5.15,8.04-2.73,2.7-1.96,1.38-1.52,.57-2.16-1.08-2.28-2.16-1.26-1.96-.24-.98Z"/><path class="cls-1" d="M358.47,501.3l.8,.04,.43-.07,.8-.73,1.66-1.15,.7-.22,.25-.3,3.07-2.38,5.92-7.35,2.58-2.52,2.2-.88-.97,2.58-.08,.86,.84,.34,.3-.38,.33-.73,.43-.51,.97,.49,.53-.23,.5-.41,.37-.37-.27-1.14,1.83-.81,.05-.72-.68-.78-.19-.28-.75,.75-.85,.48-.84,.14-.75-.31,2.28-2.91,2.7-1.41,11.73-.59,3.84,.49,3.53,1.02,1.94,.2-1.36,.55-12.8-1.05-.93,.25-.6,.78-.57,1.6-.63,3.08-.55,1.48-.87,.76,.54,1.62-.32,.61-.82,.06-1.01-.11,.81,2.08,.33,.26,1,.39,.28,.36v1.32l-.72,2.32,.32,1.26,.38-.39,1.27-.68,.81,2.22,2.04,2.1,5.09,4.07,.76,.28,.77-.32,1.43-1.15,.29-.14,.77-.07,.23-.22-.13-1.02,.1-.36,.95-.95,.46,.06,.62,.89,.77-1.2,.83-.71,.85,.09,.82,1.2,.3,.98,.02,.72-.32,1.56,.35,.73-.07,.64-.72,.8,.99,.18,.88-.06,.76,.27,.63,1.17-.17,.38-.59,3.46,.22,1.45,.15,.69-.13,.53-.68,1.03-1.33,1.44-1.5,1.23,.55,.35,.44,.13,.45-.11,.57-.37,.7,3.91,.11,1.21,.34,1.2,.67,1.03,.46,1.07-.26,1.29-.22-.74-.37-.62-.46-.49-.56-.29-.41,2.82,.2,.69,.93,.97,.32,.58,.17,.9h.4l.64-.98,.46,1.01,.56,3.2,.73,2.13,.05,.61-.34,.49-1.02,.49-.23,.59,.43,1.17,1.03,.66,1.31,.31,2.75,.02,.75-.14,.24,.98,1.26,1.96,2.28,2.16,2.16,1.08-.55,1.97-.09,1.17-.3,1.71-.13,2.07,.26,1.76-.55,1.23-1.15,.63-1.43,.16-2.69,.77-1.57,2.56-4.69,5.42-1.67,2.87-2.51,3.08-3.47,3.06-.53,1.24-.25,1.04-1,1.23-2.1,3.08-.63,2.39-.65,4.25-.55,1.53-5.97,7.63-2.05,6.9-.91-.19-.41-.22-.67-.13-.69-.02-.63,.18-.45,.4-.19,.83-.18,1.14-1.6,4.52-.81,1.72-2.71,3.31-1.12,.94-1.02,.68-1.73,.43-1.06-.16h-.56l-.58,.12-.39,.25-.29,.43-.23,.47-.29,.49-.45,.37-.6,.15-.83-.55-.87-1.16-1.2-2.72-.47-1.92-.48-3.33-.46-1.35-.67-1.01-1.05-.67-.81-.11-1.48,.16-.63-.16-.51-.32-.48-.39-.37-.22-.33-.32-.34-.55-.4-1.01-.45-.73-.86-.33-1.74,.24-.78-.11-.67-.51-.57-1.01-.41-1.25-.11-1.5,.02-1.15-.15-.98-.51-.66-.59-.29-.67-.46-.57-.68-.55-1.5-.33-1.16-.15-.87,.7-3.92,1.41-1.22,.58-1.16,.68-2.07,.18-1.96-.16-1.36-.17-.72-.27-.72-.1-.65-.03-.52,.18-1.34,.28-.8,.53-.85,1.21-1.06,.93-.59,1.05-.45,2.98-.46,.63-.46,.07-1.06-.13-1.03,.23-1.02,.68-.82,1.43-.53,.97-.54,.73-.87,.74-1.83,.6-1.96,.71-3.2,.35-1.1,.56-.85,2.81-2,.58-1.03,.23-.91-.02-.78-.63-.98-.09-.57,.29-.42,.93-.58,.77-.27,.73-.09,2.23,.69h1.04l1.06-.39,1.06-.76,1.17-1.37,.72-1.15,.23-1.54v-1.3l.12-1.33,.21-.91,.07-.76-.2-.49-.86-1.03,.02-.64,.6-.59,4.16-1.65,2.73-2.46,.22-.64-.18-.52-.52-.66-1.09-.75-2.94-.87-.83-.38-.75-.55-2.54-2.7-.78-.48-.69-.26-.53-.31-.48-.54-.47-.93-.47-.64-.34-.69-.26-.87-.37-.85-.77-.72-.73-.26h-1.27l-1.73,.35-.59-.14-.63-.27h-.55l-.49,.35-1.13,1.64-.72,.13-.53-.65-.22-2.32,.34-1.25,.56-.92,.45-.42,.66-.99,.29-.94-.1-.96-.71-1-.78-.65-.69-.77-.51-.95-.47-1.4-.57-.94-1.89-1.67-.6-1.15-.81-5.24-.27-.74Z"/><path class="cls-1" d="M115.85,782.96l-.52-.72-1.46-.58v-.57l2.77-.94,1.12-.71,2.16-2.56,3.7-2.51,2.33-2.32,1.95-2.52,.08-.5,.05-.87,.17-1.03,.48-.99,.62-.66,.65-.56,.7-.44,.68-.3-.4-.21-1.21-.97,1.16-.6,1.18-.33,3.66-.24,2.2-.52,1.99-1.03,1.22-.87,.57-.6,.81-.48,1.52,.17,.52-.24,1.46-1.4,1.01,.56,.93,1.46,1.23,1.31,2.82,.43,3.37-1.08,3.22-2.02,3.57-3.61,2.75-1.89,1.14-1.14,1.04-.79,3.78-2.04,.94-.88,.3-.71,.05-.82,.22-.67,.44-.45,1.62-1.04,.58-.2,1.1-.61,2.25-2.74,1.07-.62,1.17-.43,4.29-2.93,2.98-1,1.61-.87,.69-1.2,.27-.64,.64-.65,.74-.51,.58-.2,1.61-.18,.51,.14,.51,.09,.51-.12,.7-.49,.88-.88,2.37-.68,2.02-1.57,2.4,.53,1.31-.15,3.06-2.44,1.2-.35,.94-.65,2.01-3.07,.88-1.05,.35-.9,.04-1.02,1.2-1.42,1.54-.29,.65-.76,.1-1.1,.37-1.77,1.23-1.53,1.29-1.06,7.9-3.96,.76-1.28,.5-2.16,1.29-.44,.89-.81,.55-1.3,.44-1.14,.59-.52,1.44-.62,1.51-1.11,.81-.4,.94-.16,.68,.19,1.28,.79,.68,.19,3.84-6.15-1.89-.37-1.48,1.67-1.32,2.12-1.41,1.01,1.14-3.53,2.01-2.4,1.53-1.15,.58-1.23v-.61l4.37-.3,1.31-.64,.47-.51-.48-.76,1.06-.83,.82-1.17,.91-.71,1.29,.55,.2-1.37,.64-.29,.37-.61,2.38-1.49,5.29-1.9,2.3-1.86,1.88-.28,.93-.05,.63-.11,.5-.61,.76-.89,.66-.55,2.17-1.11,1.04-1.18,2.12-3.14,1.09-.64,1-.88,5.06-8.84,.77-.79,.57-.22,1.22-.53,1.05-.73,.46-1.03,.87-1.53,.56-.69,.61-.3,.95-.63,1-1.49,1.49-2.83,1.06-.64,4.24-8.74,1.23-1.46,.62-1.19,.17-2.55,.39-1.86,2.89-4.48,1.25-3.62,1.58-11.79,1.06-2.95,.26-1.77,.6-1.97,.3-.63,2.03-2.51,.87-1.41,.59-1.82,1-5,.83-1.57,.57-2.6,1.22-3.02-.39-.9-.44,.59-.25-.58-.08-.45-.07-3.74,.94-.7,3.54,.54,4.12-.59,1.11,.08,.44-.03,2.94-1.26,5.59-3.62,1.49-1.77,.52-.45,.88-.19,.79,.15,.58-.17,.41-1.86,.47-.48,.59-.41,.57-.56,.83-1.33,2.2-4.93,.32-.41,.27-.06,.19-.3,.09-1.63,.09-.19,.17-.12,.29-.26,.48-.71,.31-.77,.19-.85,.06-.94,.68-1.16,1.56-1.34,1.75-1.11,1.23-.46-.22-.73-.05-.78,.13-.75,.8-1.53,.11-.92,.04-1.71,.19-1.91,.29-.75,.56,.21,.27-.11,.55-.35,.69-.34,.71-.03-1.16-2.22-.34-.97-.53-8.69,.15-.96,.52-1.79,.1-.73-.36-4.08v-8.52l-.35-2.45,.02-1.38,.51-.61,.75-.05,.52-.21,.41-.47,.77-1.55,1.42-1.89,.2-.44,.11-.82,.12-.35,.41-.4,.4-.06h.39l.39-.17,.19-.35,.18-.51,.25-.48,.4-.2h.08l.27,.74,.81,5.24,.6,1.15,1.89,1.67,.57,.94,.47,1.4,.51,.95,.69,.77,.78,.65,.71,1,.1,.96-.29,.94-.66,.99-.45,.42-.56,.92-.34,1.25,.22,2.32,.53,.65,.72-.13,1.13-1.64,.49-.35h.55l.63,.26,.59,.14,1.73-.34h1.27l.73,.25,.77,.72,.37,.85,.26,.87,.34,.69,.47,.64,.47,.93,.48,.54,.53,.31,.69,.26,.78,.48,2.54,2.7,.75,.55,.83,.38,2.94,.87,1.09,.75,.52,.66,.18,.52-.22,.64-2.73,2.46-4.16,1.65-.6,.59-.02,.64,.86,1.03,.2,.49-.07,.76-.21,.91-.13,1.33v1.3l-.22,1.54-.72,1.15-1.17,1.37-1.06,.76-1.06,.39h-1.04l-2.23-.69-.73,.09-.77,.27-.93,.58-.29,.42,.09,.57,.63,.98,.02,.78-.23,.91-.58,1.03-2.81,2-.56,.85-.35,1.1-.71,3.2-.6,1.96-.74,1.83-.73,.87-.97,.54-1.43,.53-.68,.82-.23,1.02,.13,1.03-.07,1.06-.63,.46-2.98,.46-1.05,.45-.93,.59-1.21,1.06-.53,.85-.28,.8-.18,1.34,.03,.52,.1,.65,.27,.72,.17,.72,.16,1.36-.18,1.96-.68,2.07-.58,1.16-1.41,1.22-.7,3.92,.15,.87,.33,1.16,.55,1.5,.57,.68,.67,.46,.59,.29,.51,.66,.15,.98-.02,1.15,.11,1.5,.41,1.25,.57,1.01,.67,.51,.78,.11,1.74-.24,.86,.33,.45,.73,.4,1.01,.34,.55,.33,.32,.37,.22,.48,.39,.51,.32,.63,.16,1.48-.16,.81,.11,1.05,.67,.67,1.01,.46,1.35,.48,3.33,.47,1.92,1.2,2.72,.87,1.16,.83,.55,.6-.15,.45-.37,.29-.49,.23-.47,.29-.43,.39-.25,.58-.11h.56l1.06,.15-.33,1.55-.24,.79-.35,.91-.78,1.58-.19,.9-.34,.93-.74,.83-1.52,.64-1.11,.25-1.74,.79-3.01,2.69-3.63,2.87-.89,.97-.59,1.2-.53,.76-1.27,1.27-.62,1.16-.62,.85-2.68,2.13-1.57,3.23-1.72,1.51-1.55,.82-1.08,.39-1.73,.13-.9,.27-1.72,1.23-1.19,1.07-1.38,2.05-1.39,1.7-.28,.94-.2,1.5-3.65,2.21-3.09,.98-.31,.36-.24,.86-.44,2.1-.71,2.21-.22,1.08-.32,.93-.63,.78-.9,.56-2.97-.1-2.18,.5-2.48,.19-2.19,.68-.42,.06-.35-.04-.41-.29-.58-.15-.75,.03-2.2,.86-1.23,.95-.92,.56-1.08,.23-1.94,.17-2.42,.98-1.38,1-2.52,2.48-.78,1.51-.41,1.22-.25,.94-.7,.85-1.11,.71-4.67,1.48-1.29-.12-2.28,1.45-3.69,6.42-2.2,1.52-5.95,3.05-10.37,8.29-5.75,6.48-1.56-.02-1-.37-2.03,.31-2.84,1.15-7.96,4.6-5.95,2.13-1.84,1.11-4.62,4.15-1.55,1.83-.89,1.77-.85,2.07-1.52,2.23-1.59,1.85-1.1,2.22-1.36,1.45-1.61,2.92-9.23,7.64-2,2.38-2.07,2.04-3.16,3.77-1.74-1.06-1.1,.02-1.48,.25-1,1.45-.86,1.7-1.18,1.59-1.73,.93-2.18,1.53-2.48,1.25-1.97,1.53-2.33,1.24-1.93-.52-1.5-.83-1.01-.78-1.76,.06-2.22,1.18-3.7,.58-2.91-.16-2.51,.41-2.72,1.23-2.82,2.28-.63,.82-.64,1.51-2.09,2.59-2.08,1.22-1.36,1.36-1.09,1.34-.6,1.77-.39,1.63-1.46,3.98-1.35,2.09-2.23,2.35-1.65,1.04-3.87,.54-11.58,5.63-7.41,.79,1.68-6.65,.48-1.38,.51-1.94-.75-1.44-.62-1.68-1.21-1.78-1.16-1.38-2.01-1.37-2.09-.96-2.99,.18-3.22,1.08Z"/><path class="cls-1" d="M295.64,838.91l-.57,1.26-.25,1.27-4,7.56-6.57,6.82-3.21,7.01-1.42,6-.78,1.76-.71,2.14,.82,1.04,1.03,.97-.12,1.94-2.2,2.62-.55,1.14v.92l.22,.92,.15,1.08-.83,1.53-1.65,1.13-1.23,1.31,.43,2.08-.7,1-.71,.5-.81-.09-1.01-.79,.07,.92,.2,.86,.53,1.63-.99,.94-.76,.33-2.13-.07-1.19,.43,.03,.87,.87,.82,1.35,.19-1.4,3.08-.46,.46-.67,.19-.75,.48-1.21,1.07-.49,.18-.39-.13-.27,.05-.09,.74v.81l.06,.44,.25,.19,.54,.03,.9,.33,.79,.53,.76,.12,.79-.97,1.08,.94,1.56,.82,1.2,.88,.03,1.13-1.05,.81-2.88,.59-1.19,.64-1.14,1.84-.44,.54-.52,.19-.67,.15-.59,.31-.74,2.16-2.21,1.48-.57,1.45,1.11-.59,2.14-.57,1.8-1.58,2.68-1.05,.82-.8,.9-1.94,.72-1.01,.81-.55,.74-.19,.68-.4,.63-1.17,.6,1.08,.23,1.31-.21,4.65-.52,1.11-.87,.44-1.27,.11-1.21-.08-.24,.12-.61,.49-.31,.56v.58l-.12,.47-12.26,1.29-5.06,1.73-4.4,3.26-3.44,5.01-.93,1.99-.22,.98-.19,2.56-.54,1.58-.11,.78-.43,1.82-1.06,1.62-1.33,1.3-1.25,.84-3.13,1.3-1.47,.95-1.29,1.57-1.02,1.56-1.12,1.3-8.2,5.9-2.05,2.87-.8,4.5,.14,2.28-.28,.88-1.67,.62-1.39,1.22-.48,.27-1.02-.18-2-.81-1.01-.19-1.02,.15-1.71,.76-.95,.27,.93,.4,4.77,.25-1.19,2.97-1.86,1.28-2.13,.85-1.96,1.68-.84-.08-1.53-.64-1.66-.43-1.24,.56-.75,.73-3.13,1.9,.34,.41,.59,1,.33,.41-1.61,.51-1.99-.61-1.82-.14-1.1,2.01-1.24-1-.38-.18-2.04-.37-1.04,.09-.79,.54-1.21,1.35-.71,.52-.71,.22-2.07,.29-.79-.14-.78-.8,.22-1.73-.15-.99-.11-.03,.2-4.58,1-1.86,.72-2.22-.07-1.72-2.45-3.37-.3-1.83,.02-2.24-.5-2.28-.72-2.16,.43-2.62,.86-2.17,.39-2.47,.13-5.55-1.9-4.72-.66-2.37,.1-2.17-.65-2.91-1.62-2.89-1.54-2.19-.53-2.75-.06-2.51,.24-2.41-.25-2.15-.75-1.83-1.76-1.62-1-1.15-.27-2.96-.35-1.73-.13-1.52,.02-2.35,.35-2.7,.92-3.76,3.66-7.53,4.11-10.87,2.5-2.35-1.05-3.59-5.42-6.06-2.14-1.27-2.66,1.44-6.5,9.49-2.59,1.23-2.31-.36-2-.84-1.46-2.95-3.78-5.42-1.74-4.25-1.35-.74-10.38,4.83-3.9,.31-2.37-.13-2.91-1.53-.81-2.53-.1-2.33-1.87-3.98-1-2.82-.28-2.44,2.19-7.1-.18-1.59-3.34-1.56-1.63-1.55-1.67-2.23-1.15-2.6-.59-2.73-.31-3.15,1.24-3.18,.97-6.67-.17-3.01,1.51-6.24,1.14-3.1,2.09-3.58,1.99-2.54,1.96-1.38,1.29-1.36,7.41-.79,11.58-5.63,3.87-.54,1.65-1.04,2.23-2.35,1.35-2.09,1.46-3.98,.39-1.63,.6-1.77,1.09-1.34,1.36-1.36,2.08-1.22,2.09-2.59,.64-1.51,.63-.82,2.82-2.28,2.72-1.23,2.51-.41,2.91,.16,3.7-.58,2.22-1.18,1.76-.06,1.01,.78,1.5,.83,1.93,.52,2.33-1.24,1.97-1.53,2.48-1.25,2.18-1.53,1.73-.93,1.18-1.59,.86-1.7,1-1.45,1.48-.25,1.1-.02,1.74,1.06,.46,4.56-.7,2.04-1.48,2.52-1.03,2.22-1.27,1.62-1.43,2.28-.74,1.62-1.21,1.91-.16,1.82v15l.17,2.01,.32,1.27,1.85,.77,1.68,1.51,.92,2.16,.94,5.51,1.15,1.58,1.35,.79,1.66-.27,1.62,2.23,3.33,3.57,4.37-.58,1.91,.92,1.8,2.29,1.4,2.96,1.87,6.03,2.06,4.97,1.78,2.87,1.28,1.6,1.85,.99,4.2,.33,5.22-1.15,2.26,.12,1.1,.77,.76,1.64-.21,1.84,.35,2.32,.59,2.15,1.33,2.16,1.19,1.16,5.78-3.33,9.24-8.52,2.1-1.07,2.33-.63,2.33-.05,4.99-1.36,10.53,2.91,6.24,2.55,2.81,.53Z"/><path class="cls-1" d="M467.93,595.34l-4.6,4.95-1.72,2.87-.81,1.83-.34,1.62,.04,2.42-.14,1.44-.56,.73-.35,.81-.45,1.02-.11,.38-1.13,1.52-1.14,2.1-1.16,1.14-2.67,1.74-1.27,1.21-1.84,3.03-.35,.27-.4,.08-.84-.05-.59,1.42-.25,.46-.67,.62-.63,.45-.44,.66-.1,1.31,.23,.73,1.01,1.25,.41,.76-.39,.61-.45,.54-1.21-1.64-.67-.45-.91-.15-.77,.25-1.27,1.14-.62,.25-.75,.6-3.11,3.83-1.18,3.08-.92,3.53-1.4,2.96-2.61,1.37v.6l.42,.03,.28,.15,.24,.18,.32,.18-4.6,10-.65,2.81-.89,1.72-1.13,1.44-1.85,.96-.12,.83,.28,1.57-.02,.92,.08,.44-.04,.47-.42,.99-.56,.7-.52,.28-.39,.41-.15,1.13-.22,.57-.55,.55-2.58,1.62-.65,.23-1.67,.26-2.45,1.28-.34,.81-.21,.91-.25,.71-.51,.55-2.86,2.25-7.99,1.99-1.97,.92-1.61,2.03-4.54,3.34-.85,1.59-1.35,3.38-1.4,2.2-.3,.66,.19,1.17,.43,1.05-.43,1.96-.23,2.06-.11,4.32-.4,.51-.39,1.12,.15,1.74,1.07,5.09,1.7,4.83-.11,1.3-.75-.93-.7-.13-.29,.53,.49,1.15,.9,.66,3.62,1.01-1.68,.77-3.91,.26-1.77,.6-1.58,1.46,.69,.63,1.64,.28,1.31,.41,1.23-1.61,2.21-.57,2.12,.03,.95,.17,.26,1.24,.55,1.17,.55,.66,.26-.28,.28-2.1,.53-2.07,1.57,.99,.35,.69,.1,1.38-.18,2.27,.21,.5,.81-.23,.52-.63,.43-.97,.5-.87,.77-.38,.88,.1,.88,.37,.67,.69,.24,1.12,1.67-1.86,.71-.42,.24,1.44,.69,.83,.83,.67,.67,.98,.06,.64-.17,.67-.22,.57-.08,.39,.15,.49,.49,.84,.16,.4,.22,2.24-.17,2.38-.48,2.31-.74,2.04-.73-1.12-1.46,1.94-1.07-.26-.37,1.74-.03,.55-.48-.69-.52-.14-.52,.28-.49,.55-.26-1.04-.76-1.84-.24-1.08v-1.27l.17-.69-.08-.63-.68-1.05-.32-1.08,.12-1.21-.05-.99-.77-.41-.92,.36-.39,.82,.17,.95,.76,.72-.84,2.22-.07,2.24,.63,2.2,1.87,2.97-.2,.18-1.39-.28h-3.88l-.81-.48-1.36-1.64-1.35,.43-.71-.56-1.26-1.68-2.3-2.41-.06-1.1,1.14-1.53-1.04,.08-1.62,.79-4.83,.7-1.65,.88-3.43,.34-5.21,1.89-2.4,.39-.51-.31,.23-.87,.59-.61,.73-.36,1.59-.26,8.92-3.1,.91-.12,.87-.27-.45-.62-1.64-1.09-.73-.17-1.88,.28-1.02-.42-.41-.46-.72-1.15-.48-.57-1.59-.78-1.52,.26-1.54,.66-1.67,.36-.99,.86-.56,2.04-.25,2.42-.02,2.01,.15,1.21,.12,.48-.16,.41-.72,.98-.64,.33-4.93,.8-.7-.14-1.23,.4-1.06,1.23-2.73,.95-1.23,1.09-6.16,2.92-11.42,8.39-1.78,.29-.96-.19-.9,.12-.75,.49-4.39,3.09-2.2,.49-.91,.36-.72,.68-.63,.76-.67,.61-1.67,.5-1.58,1.17-.65,.26-.99,.33-1.07,1.3-.59,.63-.39,.69-1.53,.58-.72,.58-3.62,3.91-1.44,.85-1.18-.46-.85,.58-.71,.54-.49,.92-.2,.81-3.21,5.96-.23,.95v4.74l-.33,1.55-.79,1.23-1.72,2.07-.13,.75-.03,.94-.2,.81-.67,.35-.49,.15-1.72,1.04,1.31,1.65,.31,2.86v6.26l.68,4.01,.09,1.43-.3,1.57-.7,.63-.8,.45-.58,1.02,1.7,.29,.59,2.02-.06,2.73-.49,4.95-.62,1.69-.71,1.21-.48,1.1-2.81-.53-6.24-2.55-10.53-2.91-4.99,1.36-2.33,.05-2.33,.63-2.1,1.07-9.24,8.52-5.78,3.33-1.19-1.16-1.33-2.16-.59-2.15-.35-2.32,.21-1.84-.76-1.64-1.1-.77-2.26-.12-5.22,1.15-4.2-.33-1.85-.99-1.28-1.6-1.78-2.87-2.06-4.97-1.87-6.03-1.4-2.96-1.8-2.29-1.91-.92-4.37,.58-3.33-3.57-1.62-2.23-1.66,.27-1.35-.79-1.15-1.58-.94-5.51-.92-2.16-1.68-1.51-1.85-.77-.32-1.27-.17-2.01v-15l.17-1.82,1.21-1.91,.74-1.62,1.43-2.28,1.27-1.62,1.03-2.22,1.48-2.52,.7-2.04-.46-4.56,3.16-3.77,2.07-2.04,2-2.38,9.23-7.64,1.61-2.92,1.36-1.45,1.1-2.22,1.59-1.85,1.52-2.23,.85-2.07,.89-1.77,1.55-1.83,4.62-4.15,1.84-1.11,5.95-2.13,7.96-4.6,2.84-1.15,2.03-.31,1,.37,1.56,.02,5.75-6.48,10.37-8.29,5.95-3.05,2.2-1.52,3.69-6.42,2.28-1.45,1.29,.12,4.67-1.48,1.11-.71,.7-.85,.25-.94,.41-1.22,.78-1.51,2.52-2.48,1.38-1,2.42-.98,1.94-.17,1.08-.23,.92-.56,1.23-.95,2.2-.86,.75-.03,.58,.15,.41,.29,.35,.04,.42-.06,2.19-.68,2.48-.19,2.18-.5,2.97,.1,.9-.56,.63-.78,.32-.93,.22-1.08,.71-2.21,.44-2.1,.24-.86,.31-.36,3.09-.98,3.65-2.21,.2-1.5,.28-.94,1.39-1.7,1.38-2.05,1.19-1.07,1.72-1.23,.9-.27,1.73-.13,1.08-.39,1.55-.82,1.72-1.51,1.57-3.23,2.68-2.13,.62-.85,.62-1.16,1.27-1.27,.53-.76,.59-1.2,.89-.97,3.63-2.87,3.01-2.69,1.74-.79,1.11-.25,1.52-.64,.74-.83,.34-.93,.19-.9,.78-1.58,.35-.91,.24-.79,.33-1.55,1.73-.43,1.02-.68,1.12-.94,2.71-3.31,.81-1.72,1.6-4.52,.18-1.14,.19-.83,.45-.4,.63-.18,.69,.02,.67,.13,.41,.22,.91,.19,.64,.35,.98,2.58,1.06,.6,1.1,.24,.91,.02,1.19,1.13,.73,.25,.37,1.06,.18,1.28,.59,1.98,.75,.95,.13,1.15-.27,1.01-.12,1.19,.5,.83,.93,.46,1.08,.34,1.14,.56,.64,1.69,.78,1.06,.48,1.03,.41,.65,2.29,1.88-.09,1.15-.31,1.23-.04,.98,.65,.56,1,.31,.88,.4,1.51,1.53h1.11l.78-.85,2.24-1.4,1.14-.21,1.06-.72,1.09-1.62,1.43-1.61,1.15-2.52,.06-1.01-1.57-1.11,.71-1.15,1.49-1.51,1.94-1.57,3.18-3.2,1.94-1.06,5.5-2.2,.81-.95,.4-1.22,.6-1.23,.13-2.26,1.64-4.54,3.78-3.35,1.53-.88,1.16-1.03,1.15-.32,1.41-.89,1.02-.89,1.21-.81,.93-.86,1.01-2.53,.71-.89,1.08,.39,.89,.95,.57,1,.55,.43,.74-.46,.74-.7,1.19-.52,4.95-1.07,1.03-.1,.94,.18,.77,.49,.77,.35,1.72,.4,1.14-.11,.85,.1,.66,.3,.29,.47,1.77,2.12Z"/><path class="cls-1" d="M532.3,194.6l1.3-.73,.32,.22,.62,.79,.52,1.01-.45,.38-.85,.24-.66,.63-.06,.72,.45,1.5,.06,.72-.15,.55-.27,.18-.77-.09-.46,.02-1.2,.43-1.23,.16-1.27-.19-2.4-.93,.44-.55-1.29-1.24-.61-.13-.74,.65-.58,.22-.23-.88,.12-1.27,.51-.9,.45,.07,2.99-.07,.65,.41,.48,.74,.62,.36,1.1-.72,2.61-2.29Zm-18.68-25.77l.78-.51,.93,.37,.78,.87,.33,1.01,.41,1.78-.12,.72-.9,.3-2.11-.06-.58-.29,.87-.66,.03-.82-.58-1.82,.15-.89Zm16.66-15.85l.25,.47,.53,.6,.43,.76v.93l-.53,.61-.9,.35-1,.12-.81-.03-1.16-1.62,.86-1.4,1.51-.83,.81,.05Zm23.92,7.82l1.15,1.61,.48,.4-1.16,2.47-.55,.55-.83,.1-.45-.55-.2-.89-.03-.93-.34-.79-.78,.25-.88,.52-.64,.02-.31-.76-.14-1.86-.2-.65-.47-.36-.49,.02-1.43,.34,.2-.64-.02-.45-.21-.41-.42-.54-1.37,.47-1.69-.74-1.35-1.48-.4-1.75,1.53,1.86,.45,.19,.55-.6v-.92l-.13-.99,.19-.79,.5-1.27-.81-.63-1.19-.61-.68-1.24,1.76,.03,.78-.29,.66-.74-1.17-1.22-.23-1.47,.68-1.13,1.53-.23,.59,.23,.53,.45,.39,.68,.15,.93,.26,.43,1.76,1.33-1.16,.57,.13,.84,.85,.88,1.55,.96,1.51,.64,.58,.11,.52,.28-.29,.65-.55,.76-.3,.59-.21,1.11-.33,.8-.02,.86,.76,1.26,.25,.27,.32,.23,.33,.16,.33,.06,.2,.12v.3l-.06,.34,.05,.29Zm-51.26,74.79l-1.29-3.06-.61-2.36-1.39-2.67-.23-.65-.35-1.58-2.51-4.78-.41-2.06,.97-.1,1.66,.4,2.37-.73,.86,.3,.59,.62-.13,.78-.57,.81-.1,.44,2.98,5.88,.24,2.4,.85,1.86,1.03,.83,.64-1.75-.73-1.92-.15-1.16,.68-.51,1.76,.33,.77-.09,.88-.71-1.19,.05-2.98-.56-1.06-.5,.89-.43,3.21-2.83,.41,.18-.05,1.61,2.45-2.97,1.35-1.07,1.45-.15,2.26,2.63,.78,.45,.83-.35,.15-.84-.28-1.01-.49-.87,.11-.8-3.02-1.22-1.13-.98-.92,.34-.55-.96-.41-1.42-.53-1.09-1.52,1.82-.86-.73-.12-1.65,.67-.92,.68-.2,.72-.54,.58-.74,.24-.81-3.82-.69-4.01,.21-1.97,.58-1.57,1.19-.51,.92-.37,1.79-.3,.83-.57,.77-.48,.03-1.4-1.3-.83,1.3-1.27,1.14-1.4,.49-1.19-.63-.67-1.31-2.4-8.46-1.3-6.97-1.12-3.32-3.07-5.63-8.16-10.35-1.74-3.39-.37-3.38,.16-.85,.25-.66,.46-.42,.76-.08-.65,2-.07,1,.31,1.06,.96-1.97,.57-.78,.86-.31,.83,.55,.89,2.42,1.19,1.11,1.34,2.44,.85,.57,.99,.27,.58,.68-.06,.83-.91,.72,2.39,.9,.63,.11,.07,.17-.59,.38-.88,.35-.81,.11,.56,.45,.23,.59-.07,.7-.32,.77,.71,.06,.55,.19,1.19,.81-.03-.52,.06-1.05-.03-.51,.59,1.03,.6,1.69,.59,.83,.61-1.48,.63,.06,.25-.83,.12-1.21,.26-1.1,.39-.49,.94-.82,.32-.7-.93,.34-.32,.17-.51-1.44,.56-3.3-.45-.85-.53,1.1-.24-.55v-3.84l-.04-.24,.22-.38,.99-1.12-.46-.8-.71-.8-.5-.83,.25-.84,1.3-1.19-.09-.43-1.86-1.17-.39,.04-.98,1.26-.73,.7-.53,.33-3.48,.26-1.88-.43-1.3-1.25-.39-2.36,.81,.46,.45-1.76,.64-.17,.81,.55,.93,.38,2.52-.18,1.19-.38,.96-.7,.94-.96,.75-.5,1.76-.8,1.61-1.5,.59-.26,.5-.03,.37-.26,.2-.96-.35-.33-.14-.07-.1-.13-.22-.48,1.74-1.29,5.77-4.96,1.08-.67,.75,.86,3.31,5.16,1.9,2.16,2.46,1.71,1.53,.65,.05,.41-.36,.99,.03,.2,.2,.1,.13,.13-.16,.33-.21,.11-.2-.08-.14-.16-.02-.13-.32,.25-.23-.12-.17,.07-.13,.81,.46,1.34,1.33,.54,1.65,.23,1.42,.44-1.79,.31-4.89-.26-1.01,.18,.15,1.02,.83,3.04,.95,1.96,.12,1.26-.14,1.32-.25,1.17-1.2-3.49-.94-1.46-1.54-.62,1.08,3.25-.13,1.25-1.35,.07v.55l.58,.19,.51,.32,.48,.42,.45,.54-.42,.77-1.24,.78-.36,.51v.97l.64,1.3,.17,.99-.03,1.51,.28,.2,.76,.81,.59,.41,.82,.23,1.63,.12,2.52-.99,.71-.02,.62,.52-.27,.4-2.73,1.59-1.46,.57-.96-.1-2.48-.96,1.21,1.28,.9,1.82,3.54,11.12-1.29-.37-.77-.69-.84-.29-1.55,.85-.5-.37-.22-.46,.04-.55,.27-.64-1.15-.27-.84-2.03h-.86l-2.11,1.08-.93,.64-.99,1.08v.51l.51,.06,2.09-.32,1.04,.26-.55,.54-.85,.56-.57,.59,.31,.59,.94,.58,.28,.27-.05,.43,.07,3.15,.26,1,.73,.42,.48-.38,.08-.91-.05-1.02,.12-.78,.39,.57,.5-.85,.54-.71,.64-.57,.75-.41,.93-.16,2.76,.61h3.71l1.29,.85-.19,2.23-.6,.89-.58,.48-.3,.65,.27,1.42,.33,.96,.32,.52,.39-.1,.57-.83,1.62-8.09h.41l1.29,3.49,.46,1.69-.1,1.94,1.35-.36,1.51-.06,.74-.55-.97-1.81-.23-1.23,1.39-.35,1.88,.22,1.25,.51,.71,1.69-.67,3.38,.76,1.29,.91,.25,.72-.3,.67-.47,.99-.33,1.39-.98,.36,.15,.32,.29,.29,.11,1.94-.93,.53-.13,.61,.23,1.27,1.07,.77,.25,.48,.29,2.1,2.63,.41,.73-3.25,1.72-1.92-1.2-1.28,2.8-1.28,4.01-.32,5.22-5.44,.8-6.72,1.61-6.4,1.61-5.12,1.6-3.52,2.41-3.45,.55Z"/><path class="cls-1" d="M572.51,186.03l-.37,.15-.37,.1-.39,.04-.39-.02-.25-.02-.48-.14-.72-.36-.15-.25,.09-.28,.16-.32,.08-.21,.05-.23-.03-.25-.11-.28-.37-.29-.49-.13-.45-.29-.29-.81,1.61-.5,.4,.59,.64,1.93,.66,.08,.5,.26,.39,.49,.29,.73Zm-72.85,155.81l.11-.25,.91-.26-.39-1.34,.17-1.15,.38-1.12,.2-1.33,.16-13.07,.49-2.82,2.08-4.78,.75-2.66,.45-2.91,.3-4.44,.59-2.68,.07-1.58-.29-1.36-.5-1.36-.3-1.29,.28-1.13,.94,.51,1.11,.11,1.1-.21,.94-.4,.08,.85,.31,.72,.41,.58,.38,.43h.37v-1.07l.9,.68,.73,.97,.84,.53,1.2-.61-.45-.32-1.2-1.26,1.56-.59,1.83,.24,1.67-.12,1.07-1.59h-1.11l-.46,.15-.45,.41-.43-.56,.17-1.49-1.19-1.12-1.66-.52-1.2,.33-.44,.86-.23,.75-.39,.52-.95,.2-.58-.48-.07-1.09,.2-1.21,.26-.82,.53-.78,.51-.26,.59-.1,.76-.34,1.85-2.1,.98-.7,.07-1.46-.71-1.28-1.35-.15-.98,1.29-.51,1.77-.74,.95-1.63-1.19-.22-1.38,.44-7.12,1.6-3.53,2.8-1.03,3.36-.03,3.19-.52-.22-.64-.37-.46-.48-.31-.58-.12,.82-.62,.64-.85,.21-1.02-.42-1.13-2.46,1.54-.28,.34-.23,.85-.29,.35-.24-.07-.35-.24-.41-.15-1.81,.83-1.01-1.19-3.79-14.69-3.43-8.27-.63-3.42v-.8l.54-.9,.67-.41,1.74-.45,.67-.43,.64-1.4,.52-1.7,.78-1.44,1.43-.59,.13-.29-.29-.55-.62-.3-.82,.41-.58,.5-1.16,.74-.49,.5-1.7,3.04-.84,.42-1.31-1.13-.87-1.38-1.11-2.65,3.45-.55,3.52-2.41,5.12-1.6,6.4-1.61,6.72-1.61,5.44-.8,.32-5.22,1.28-4.01,1.28-2.8,1.92,1.2,3.25-1.72,.3,.88,.16,1.08-.06,1.72-.75,5.17,.27,1.7,.69,1.61,.92,1.4,.91,1.12,2.14,1.23,2.64,.08,2.7-.7,2.29-1.13,.47-.48,.19-.5,.32-.38,.82-.16,.49,.34,.18,.79-.04,1.67,.32,1.47,.78,.89,1.05,.17,1.09-.71-.92-.26-.63-.78-.36-1.1-.25-2.36-.55-1.98-.13-.95-1.03-2.24-.19-1.08,.07-3.91-.28-.92-.26-.6-1.4-4.57-.41-.86-.57-.87-.72-.73-1.49-1.09-.62-.67-.36-.8-.19-.78-.31-.75-.75-.7,1.25-.46,1.42,.26,1.3-.02,.87-1.25-1.94,.04-.92-.15-.82-.45,.73-.28,.74-.17,.62-.32,.37-.75-.51-.02-.39-.16-.35-.22-.37-.15,2.98-.85,.98-.88-.29-1.82-.94,.66-.3,.36-.4-.72-.3-.76-.03-.76,.37-.75-1.34-2.23,.42-1.96,.77-1.79-.29-1.67-.5-.25-.67-.12-.59-.24-.26-.65-.17-.19-1.07-1.53-1.06-.59-2.21-.84-.98-.91-.51-.98-.29-1.21-.17-2.84,.49-1.05h1.19l1.46,.27,1.97-.42,.39,.37,.25,.59,.36,.67,.23,.58,.13,.23,.23,.23,.48,.28,1.22,1.17,.6,.08,1.54-1.75,1.08,1.38,.69,1.86-.1,1.9-1.3,1.45,1.24,1.01,1.35,.03,1.06,.35,.44,1.94,.16,1.88-.16,.96-.62-.32-.78-.63-.58,.16-.2,.63,.36,.85,.68,.31,1.7-.26,.65,.21,.39,.83-.2,.77-.4,.73-.19,.75,.42,2.13,.83,.21,2.39-1.89-.85-.38-.36-.08,.41-.68,.74-.25,.83,.14,.66,.51,.72,.35,.87-.43,1.45-1.21,1.08-.4,.85-.06,.75,.34,.79,.88,.66,.12,.8-.47,.62-.08,.12,1.23-.32,.97-.61,.26-1.68-.22-.29,.36-1.14,2.16-.77,.51-1.53,.61-.74,.62-.94,1.3-.88,1.55,.71,.58-.04,.54-.22,.54,.14,.59,.67,.67,.71,.46,.48-.03-.06-.81,.94-.77-.46-2.33,.77-1,1.3,.69,2.42-.53,1.36,1.13,.22,.81-.08,1.92,.26,.8,.93,1.21,.26,.58,.25,.98,.36,3.54-.2,2.36,.02,.43,.12,.73-.38,.8-.49,.82-.26,.77,.3,.51,.64-.41,.68-.79,.37-.61,1.07,1.39-.2,1.86-.87,1.96-.99,1.67-.07,.63,.6,.24,.79,.14,.51,.26,.2,.92-.09,2.16,.29,.98-.57-.4-.44-.59-.33-.74-.27-.81h-.45l.27,1.86,.44,1.62,.09,1.3-.79,.84,2.01,.96,.69,.69,.56,1.36,.58,2.92,.23,2.98,.11,.53-2.39,.98-.26,2.78-1.25,1.99-1.07,.53-.25,1.29,1.39,1.2-.16,.97-1.94-.58-1.76-.96-.7,1.02-.46,1.18,.78,.92,.65,1.38-.47,1.2-.14,1.72,.98,2.06,.04,2.22,1.17,2.63,1.48,2.38,2.1,5.21,.75,6.04,.41,.93,1.63,2.04-.02,1.68-.47,1.73,.9,3.17,.66,1.22,.94,.22,1.02,.11,1.96,.88,.68,2.09,1.34,1.34,1.76,1.03,4.26,.71,2.59,2.54,.92,1.18-.04,1.67,.75,3.12,.52,3.2,.78,2.06,1.03,1.7,.59,1.2,.68,.95,9.04,4.03,1.55,1.47,.55,2.97-1.32,5.97-1.17,2.06-3.56-1.72-1.03,.79-.42,1.58-.67,1.64-1.33,.66-1.44-.11-.89-.57,.15-.81,.39-.88,.99-1.04,.32-.62,.12-.92-.25-.88-.62-.61-.8-.31h-.8l-.54,.26-.93,.89-.55,.4-.95,.37-.95,.14h-1.98l-.33-.33-1.22-1.55-1.23-.69-1.12-1.02-1.52,1.57-.72,.95-.55,1.11-.79,.26-.87,.18-.57,1.68,.64,1.61,3.43,.92,4.9,1.99,.91,1.11-1.41,3.25-.67,2.98,2.35,2.8,1.34,2.87-1.06,1.11-1.28,.47-3.97-1.52-1.19-.05-.56,1.72-.38,2.51,.65,1.03,1.48,3.06,1.73,2.87,1.55,1.46,1.83,.39,1.38-.79,1.01,1.04,1.12,6.92-2.72,4.7-2.96,3.66-1.61-.53-3.46,1.21-4.51-.19-2.58,.35-.32,.23-.17,.41-1.56,1.95-2.37,.89-.7,.86-.41,1-.63,1.05-.47,1.14-.26,1.18-.69,.92-2.32,1.18-2.46-.29-5.42,.07-5.13-1.53-.24-3.01,1.37-2.8,1.29-3.23,.72-3.51-.51-1.53-.76-1.24,.35-1.74,1.02-1.49,1.03-2.13-.03-1.66-1.91-.13-1.93,.3-2.09-1.2,.51-2.79,.48-.97-.1-1.22-1.15-1.36-.34-1.88,1.09-2.09-.02-2.2-1.72-1.46-1.06-2.07,2.09-3.28,1.33-3.14,.73-2.53,1.69-1.92,.94-2.16-.76-.88-1.68,1.1-1.83,.57-2.42-1.12-2.04-1.39h-3.62l-3.53,.82-1.4,.05-1.01-.93-1.24,.84-.3,.82-.12,.89-.59,.23-.78,.41-1,.9-2.37,1.32-1.43,.16-2.38-.45-2.4-.12-.67,.42-.52,.43-.64-.31-.67,.13-1.25,1.05-1.34,.64-3.69,.72-.5,.96,.29,1.44-1.48,2.46-.16,.64,.05,.67-2.23,.77-2.07,1.27-1.64-1.07-1.08-1.2-.71-.63-.84-.23-1.18,.33-5.21-.34-4.2-2.16Z"/><path class="cls-1" d="M598.51,503.07l-2.07,5.21-.95,3.7-.9,1.51-2.93,1.23-1.25,1.42-1.02,1.79-.66,1.64-1.89,7.16-1.26,2.98-6,8.44-9.04,7.48-2.18,2.34-2.97,2.16-3.46,1.8-13.05,10.29-4.06,1.63-.97,.73-1.96,2.23-.96,.4-4.54,.43-.93-.52-.55-2.47-.94-.79,.32-1.19-.27-.87-.51-.81-.39-.97-.05-1.11,.96-5.88-.28-.85-.64-.55-7.08-2.75-1.61-.18-1.52,.39-1.36,.96-2.91,3.18-.57,.44-.64,.11-.95-.23-1.31-.97-.8-.82-.12-.65,.77-1.5-.11-1.3-.39-1.44-.08-1.93,.45-1.67,1.3-3.09,.27-2.01-.68-1.77-1.56-.46-1.75,.31-1.23,.58-.93,.75-.7,.79-.5,.96-.34,1.27,2.77,.7,.84,.77-.37,1.81-.39,.62-.55,.51-.64,.14-.66-.49-.62-.23-.68,.52-.73,.71-.78,.37-2.71-.56-2.89-1.51-2.17-2.25-.56-2.73,.68-1.57,1.08-.59,2.69-.54,.98-.87,2.28-2.82,1.5-1.37,1.45-3.35,.9-.77,1.28-.56,.77-.91,.6-.03,.78,2.05,.75-.71,.31-.7-.03-.81-.23-1.05-.32-.21-.71-.95-.44-1.04,.47-.49,.68-.33,1.04-1.43,.71-.33,.68-.22,.75-.54,.68-.71,.51-.72,.44-.97,.17-.78,.2-1.96,1.25-3.58,.55-1.19,3.5-3.84,1.56-2.64,1.82,.05,6.2-1.33,7.67,.2,4.41-1.23,.28,.1,3.03,1.06,1.65,.58,9.35-1.04,9.2-1.44,11.5-1.6,7.99,.32,5.44,1.28,1.81,2.56,2.02,1.11Z"/><path class="cls-1" d="M526.14,502.44l1.76-2.96,2.78-6.24,1.61-5.32,.63-1.34,.5-1.58,.22-4.4,.32-1.78,.03-.4-.05-.51v-.45l.2-.19h.43l.56-.1,.38-.25-.38-1.21-.19-1.19-.06-1.16,.09-.66,.51-1.37,.74-4.45,.23-3.08-.1-.81-.35-.67-.93-1.83-.77-5.06-1.12-4.18-.78-2.05-.93-1.75-4.51-4.7-1.19-2.16-5.42-6.2-4.14-2.61-3.29-1.55-1.53-.28-2.59,.03,1.6-2.99,1.22-1.27,1.51-.89,1.48-1.76,1.7-1.42,1.33-.45,.98-1.28-.17-1.07,.02-1.49,.28-.56,.6-.27,1.33-.41,1.13-1.01-.43-.74-.51-.65,.05-3.56,.93-3.47-.54-2.28-.83-2.35-2.73-2.42-1.77-2.21-.52-1.58-.05-1.69,.35-.75,.26-.79-.29-1.11-1.2-.65-2.67-1.89,.15-1.05,.61-1.15,.97-2.53,1.66-1.82,1.36-.26,1.03-.47,1.21-2.65,4.99-6.57,.71-.22,.97,.35,.76-.49-.63-1.31-1.18-1.04-3.92-.96v-2.35l-.91-1.95-2.41-.52-1.32-1.5-.6-2.13,.18-2.51-.94-1.82-2.04,.97-1.6-2.54-.56-2.93,1.31-2.68,.22-.3,.33-.33,1.25-.42,1.02-.65,2.07-1.27,2.23-.77-.05-.67,.16-.64,1.48-2.46-.29-1.44,.5-.96,3.69-.72,1.34-.64,1.25-1.05,.67-.13,.64,.31,.52-.43,.67-.42,2.4,.12,2.38,.45,1.43-.16,2.37-1.32,1-.9,.78-.41,.59-.23,.12-.89,.3-.82,1.24-.84,1.01,.93,1.4-.05,3.53-.83h3.62l2.04,1.4,2.42,1.12,1.83-.57,1.68-1.1,.76,.88-.94,2.16-1.69,1.92-.73,2.53-1.33,3.14-2.09,3.28,1.06,2.07,1.72,1.46,.02,2.2-1.09,2.09,.34,1.88,1.15,1.36,.1,1.22-.48,.97-.51,2.79,2.09,1.2,1.93-.3,1.91,.13,.03,1.66-1.03,2.13-1.02,1.49-.35,1.74,.76,1.24,.51,1.53-.72,3.51-1.29,3.23-1.37,2.8,.24,3.01,5.13,1.53,5.42-.07,2.46,.29,2.32-1.18,.69-.92,.26-1.18,.47-1.14,.63-1.05,.41-1,.7-.86,2.37-.89,1.56-1.95,.17-.41,.32-.23,2.58-.35,4.51,.19,3.46-1.21,1.61,.53,.31,3.62,1.77,2.79,3.99,1.1,.64,1.56,.26,1.44,.32,.5-.04,.64-1.25,1.03-.26,1.17-.47,1.09,.29,.96,1.36,.6,1.62,1.37-.76,1.96-.25,2.34,.25,4.36-1.27,.91-1.92,.54-1.82,.91-2.75,3.62-1.2,.77-.84,.82,.66,.48,.72,.19,.34,.98-.36,1.17,.64,1.97,.9,1.66-.24,.49-.49,.16-.3,.87-.05,1.03-2.74,9.91-.64,5.16-1.29,5.91-.06,.57,.21,.9,1.08,1.41,1.19,.32,3.86-.16,3.54,3.08,.86,.58,.97,.13,.48,.19,.43,.28,.37,.94-.17,1.03,.25,1.15,.68,.86,1.99,2.03,.18,1.46-.4,1.27v2.09l1.65,4.15,.21,2.4-.38,2.66-.1,2.33,1.75,1.99,2.07,1.45,6.31,.56,1.74,.94,2.38,2.21-.07,.63-1.01,1.75-1.45,.1-1.48-.36-1.15,.37-3.44,5.64-3.53,3.56-.51,.99-.09,.79-.25,.91-.32,.86-1.18,2.25-.41,.28-.96,.13-.43,.32-.4,.71-2.26,5.85-1.37,2.25-2.02-1.11-1.81-2.56-5.44-1.28-7.99-.32-11.5,1.6-9.2,1.44-9.35,1.04-1.65-.58-3.03-1.06-.28-.1-4.41,1.23-7.67-.2-6.2,1.33-1.82-.05Z"/><path class="cls-1" d="M508.83,429.96l-2.21,.03-4.77-1.78-3.63-.38-1.52-.37-1.42-.93-6.3-5.99-1.13-1.42-3.45-5.49-2.42-2.56-2.96-1.69-3.19-1.02-10.1-1.61-3.44-1.17-8.02-6.01-2.16-2.35-1.79-3.08-1.13-3.55-.36-3.49,.3-3.51,.78-3.65,1.75-3.42,2.7-2.18,6.1-2.75,15.15-9.54,1.3-.39,7.88,.57,2.86-.96,2.6-1.96,7.1-7.44,.9-1.59,.49-2.78,.55-1.79,.13-.99v-2.34l.24-.54,4.2,2.16,5.21,.34,1.18-.33,.84,.23,.71,.63,1.08,1.2,1.64,1.07-1.02,.65-1.25,.42-.33,.33-.22,.3-1.31,2.68,.56,2.93,1.6,2.54,2.04-.97,.94,1.82-.18,2.51,.6,2.13,1.32,1.5,2.41,.52,.93,1.95v2.35l3.91,.96,1.18,1.04,.63,1.31-.76,.49-.97-.35-.71,.22-4.99,6.57-1.21,2.65-1.03,.47-1.36,.26-1.66,1.82-.97,2.53-.61,1.15-.15,1.05,2.67,1.89,1.2,.65,.29,1.11-.26,.79-.35,.75,.05,1.69,.52,1.58,1.77,2.21,2.73,2.42,.83,2.35,.54,2.28-.93,3.47-.05,3.56,.51,.65,.43,.74-1.13,1.01-1.33,.41-.6,.27-.28,.56-.02,1.49,.17,1.07-.98,1.28-1.33,.45-1.7,1.42-1.48,1.76-1.51,.89-1.22,1.27-1.6,2.99Z"/><path class="cls-1" d="M493.37,156.78l-.63,.66-.77,.45-.83,.26-.23,.02-.6,.06-.58,.29-1.4,1.34-.65,.42-.46-.85-.97,.64-1.16,1.12-1.08,.61-1.49-.29-.85-.32-.49-.39-.3-1.31,.59-.3,1.73,.56,.99,.93,.44,.08,.32-1.87,.91-2.36,1.38-1.8,.37-.81,.12-.53,.07-.64,.27-1.08,.98,.48,.74-.11,.18-.66-.69-1.16-.59-.39-2.25-.64,.29,2.25-.79,2.48-1.44,2.02-1.7,.85,.91-1.22,.3-.28-.66-.24-.66,.12-.5-.03-.2-.65-.16-1.15-.38-.22-.51,.16-.53-.04-.64-.25-.37,.03-.18-.25-.05-1.03,.06-.82,.21-.76,.53-1.43-.94,.06-.64,.47-1.24,1.47,.25-2.03-.9-.04-2.59,2.08,.63,.6v1.59l.8,.32h1.07l.75,.14,.58,.44,.62,.93-.37,1.04v.7l.55,.3,.44-.15,.3-.35,.48-.77h.55l.64,.65,1.05,1.62-2.13,.57-.34,.16-.13,.71-.35,.39-.5,.14h-.59l-.47-.27-.77-1.02-.58-.23-.66-.09-.38-.26-1.42-2.1-.52-1.07-.66-1.04-1.02-.93-1.09-.23-2.82-.09-.57-.44-.37-.69-.88-.93-1.03-.8-.79-.35-.93-.57-.41-1.34-.05-2.84-.38-1.11-1.7-1.79-.68-2.19-.73-.86-1.83-1.35,2.17-2.03,.56-1.13-.27-1.83-.34-.49-.62-.64-.65-.45-.41,.04-.12,.96,.43,.71,.58,.51,.32,.36-.36,1.59-2.26,1.22-.25,1.18,3.04,4.28,.41,.76,1.23,.75,.51,1.72,.26,1.93,.46,1.36,.42,.64,.74,1.62,.46,.78,.56,.41,.76,.34,.67,.47,.51,1.42,.53,.51,.6,.45,.45,.43,3.25,5.02,.75,.44,.9-.13,.85,.04,.53,.93-1.21,.56,.57,.89,1.2,1.24,.65,1.61-.48,1.54-1.17,.99-2.76,1.21-2.87,.07-1.42-2.57-1.89-7.08-7.69-10.57-2.13-4.3-13.36-18.08-13.35-18.03-.37-1.36,.43-1.17,1.95-2.63,.45-1.21,.13-1.64,.41-1.68,.76-.94,1.16,.56,.33-.72,.07-.32,.59,.65,.55,.82,.64,.71,.85,.3,.13-.51-.11-2.53,.18-.93,1.61,2.53,.34-1.24,.04-1.43,.26-1.36,1.02-1.01,.56-.02,.34,.35,.37,.18,.75-.51,.24-.48,.38-1.52,.97-1.65-2.17,.65-.67-.21v-.86l-.05-.54-.28-.29-.65-.08-.21,.39v2.63l-.66-1.08-.97-3.41-1.04,1.08,.25,1.33,.74,1.36,.45,1.17-.34,1.29-.96,.64-1.16-.02-1.52-.99-.59-.07-.33,.27,.56,1.42-.38,.35-.65,.16-.52,.22-.55,.33-.39-.25-.69-1.1-.45-.02-.67,.37-1.16,.92,.52,1.03-.39,.48-.74,.34-.56,.62-.02,.43,.15,.37,.17,.22,.1-.02-.2,5.4-.2,.61-.54,.12-.48-.47-5.08-7.14-.71-1.97,.31-1.21,2.02-2.32-.4,.02-.81-.06-.41,.04,1.18-1.37,.5-.75,.35-.81-1.81,.29-1.07,1.13-.67,1.66-.54,1.88-.64-.55-1.86-2.16-.33-.77,.48-.6,2.09-1.56,.69-.86-.88-.28-1.7,1-1.1,.26-1.02-.32-.82-.72-1.4-1.88-2.36-2.51-.44-.96,.13-1.42,.85-.4,1.16,.25,1.06,.56,1.92-2.68,1.13-3.4,.21-3.71-.79-3.63-1.89-4.52-.78-1.2-3.57-3.64-1.09-1.55-1.84-4.71-.77-.75-1.06-.56-12.07-16-2.39-2.07-5.02-3.04,.6-.58,.39-.53,.62-1.33-.11-.59-.08-1.15,.28-.72,.96,.69,1.35,.71,3.47,.15,1.49,.9,.76-.8,1.85-.42,1.79-1.2,6.73,.6,1.04-.19,.66-.56,.61-.71,.68-.18,.92,1.01-1.7,1.09-.46,1.44,.11,3.85-.15,.96-.23,.6-.51,.32-.95,.09-.29-.4-.23-.85-.43-.85-.84-.35,.12-.33,.17-.84,.12-.35-1.18-.42-.44,.14-.44,1.8-.2,1.58-.43,.46-.97-.61-.05,.73-.23,.57-.38,.42-.54,.3,.58,.65,1.87,1.4,.17-.8,.29-.67,.45-.45,.67-.13-.31,1.07-.2,.49-.29,.49,.64,.43,.6,.05,.5-.33,.32-.73,.32,.85,.11,.93-.03,4.15,.23,.5,.58-.48,.67-1.68,.15-2.12-.36-2.07-.91-1.53,1.54,.78,.89,3.52,.59,4.21,.65,2.82,1.93,2.21,2.44,2.16,2,2.45,.56,3.03-2.88-3.45-1.23-.99,.23,2.56,2.48,2.54,7.9,4.67-.17,.83-1.26,1.54-.37,.61-.19,.73-.04,2.99,.17,.4,.39-.05,.65,.04,1.95,.57,.48-.03,.46-.64,.19-.85,.31-.74,.85-.32,.75-.9-.13-2.03-.82-3.49,.32-1.59,1.11-.49,1.46-.26,1.39-.86,.4-.97-.13-.85-.27-.69v-.47l.64-.63h.5l.38,.49,.29,.89,.06,.64-.09,.66-.37,1.16,1.79-.91,.67-.12-.31,.74,.18,.59,.89,1.13-2.42,1.02h-2.48l-.56,.25-.41,1.16,.29,1.36,.59,1.28,.55,.93,.81,1.09,1,.95,1.16,.67,1.29,.25,2.87-.33,1.14,.39,1.1,1.47,.67-1.17,.13-.35-.64-.81-.76-.71-.57-.84-.08-1.13,.58-1.25,.78-.05,.81,.74,.66,1.09,.71-.73,.81-.11,.68,.37,.63,1.59,.85,.35h1.8l.2-.15,.14-.35,.24-.33,.45-.15,.58,.17,.1,.39-.03,.48,.15,.41,.32,.47,.17,.51,.23,.4,.51,.15,.46,.04,.39,.12,.78,.34-.77,.41-.36,.65-.21,.74-.32,.67-1.33,1.01-.57,.62,.1,.61,2.03,1.75,1.23-.09,.28-.28-.12-.48,.03-.68,1.22-2.47,.05-.44-.14-1.07,.09-.42,.42-.38,1-.16,1.07-.56,.88-.06,1.72,.12-.16,.39,.51,.85,1.02,1.23,2.39,1.82,.93,1.15,.38,1.77,.81,1.33,1.87,.3,3.41-.4,1.42,.38,1.46,1,1.14,1.5,.47,1.82-2.46,.78-.67-.26-.19-.66-.06-.81-.26-.74-.29,.1-.49,.37h-.61l-.71-1.01-1.44,.8-.6,.48,.56,.46,1.13,1.73-2.01,.25-.18,1.02,.92,.75,1.27-.54,.58,.45,.64,.15,.65-.15,.59-.45,.72,1.14-.12,.99-.43,.92-.17,.92,.37,.91,2.23,2.33,.31,.63,.19,.89,.13,1.95,.17,.21,.4-.78,.41-1.17,.19-1.01,1.17,.66,.62,.25,.68,.08-.13-.32-.17-.8-.11-.33,.86-.06,.5,.37,.37,.46,.48,.22,.54-.31,.15-.7-.2-.7-.49-.31-1.32-.14-1.7-.45-1.46-.75-.56-1.13,.4,.49,.83-.84,1.42-.08,3.02,.43-.3-.73-.14-.26,.62-.07,.79,.12,.6,.21v.24l.67-.39,.09-.25v-.35l.3-.71,1.62-1.75,1.82-1.5,.46,1.79-.51,1.48-.8,1.47-.37,1.69,.45,1.72,1,.74,1.29,.14,1.33-.08v.45l-.57,1.03,1.81,2.22-.88,.77-.35-.23-1.66-1.75-1.86-1.45-.57-.59,.98,1.61,2.17,4.89,1.33,1.03,1.22,.14,1.21,.31-.05-.11,.06-.2,.15-.17,.24,.02,.24,.25,.21,.62,.16,.13,.5,.54,1.39,2.56,.32,.88-2.33,.33,.27,.88,3.1,2.54,2.86,3.05,.52,1.72-.77,2.46-.9-.51-2.66-.44-1.07-.05-.62,.37,.98,.84,2.24,1.23-.31,.1-.86,.45,1.52,.36,.62,.28,.25,.62-.21,.75-.52,.52-.65,.32-.64,.18,3.48,2.15,.61,.79,.05,.9-.39,1.75,.15,.66,1.41,2.72-1.63,.44-1.21-.77-1.12-1.21-1.33-.9,.41-1.37-1.7-.5,.07-1.18-.89,.07-1.52,.65-.86,.23-.41-.11-.61-.68-.38-.16-.4,.23-.32,1.03-.27,.24-.94,.04-.12-.14,.2-.61,.02-1.33-.18-1.03-.3-.88-.47-.8-.65-.77-.27,1.6,.28,3.96-.21,1.23-.31,.75-.08,.96,.16,.9,.43,.57,.91,.15,.52-.61,.36-.95,.45-.81,1.07-.19,3.93,.51,1.28,.45,.98,1.27-.25,1.44-1.01,1.45-1.33,1.32,.97,1.05,.21,1.79-.07,1.88,.09,1.33,.72,.92,2.66,1.98,1.11,.6,.72,.14h1.49l.65,.37,.58,.94-.07,.68-.33,.62-.17,.79,.3,1.73,.63,.89,.88,.7,.28,.32-1.08,.67-5.77,4.96-1.74,1.29Z"/><path class="cls-1" d="M579.09,241.16l.14,.65,1.08,2.33,.25,1.09,.18,.53,.83,.66,.24,.62-.02,.98-.29-.14-.45-.43-.48,.1-.48,1.17,.56,.49,2.38,.38,.99,.43,1.06,.67,.99,.81,.81,.86,.61,1,.93,2.21,.49,.91,1.69,1.6,.72,.93,.23,1.29-2.12-1.67-.71-.37-.91-.09-.88,.15-.91-.16-.97-.93,.61-.34,1.86-.68-2.07-1.46-1-.93-.81-.96-1.16-.73-1.54-.08-2.77,.53,.36,.45,.54,.83,.28,.3-.21,.43-.17,.53-.08,.55,.09,.54,.39,.55,.36,.08,.3-.11h.17l.31,.23,.63,.13,.24,.14,.11,.41-.14,.46-.24,.4-.09,.26,.28,1.68,.09,.37,.3,.35,.31,.16,1.04,.05,.47-.17,.32-.37,.23-.37,.21-.16,1.05,.53,.49,.91,.34,1.08,.58,1.11,.92-.65,.59,.44,.5,.8,.61,.43,.85-.4,.3-.77,.39-.61,1.13,.19,.79,.51,.33,.67,.07,.92-.02,1.26,.3,.67,.74-.03,.94-.28,.88-.11-.81-3.62-1.33-2.23-.32-1.06,.79-.28,1.16,1.01,2.09,3.8,1.44,.85,1.62,.4,3.58,1.75,1.71,.4,.68,.31,1.42,1.41,.74,.32h1.77l.29,.3,.26,.48,.4,.23,.71-.5,11.82,8.66,2.4,1.16,3.74,.62,3.57,1.38,4.03,.59,3.24,2.08,5.51,.75,2.23,1.25h-3.47l-.65,.2,.36,.48,2.73,1.95,.76,.36,.86,.14,.76-.4,.14-.91-.26-1.04-.43-.78,1-.26,.58,.35,.49,.55,.77,.39h3.87l.14,.16,.65,1.13,.35,.24,.28-.11,.26-.26,.35-.13,.23-.24-.04-.53v-.53l.4-.24,.67-.05,1.77-.46,5.31-.39,1.42-.9,1.07-.97,4.58-2.86,1.81-1.55,.62-.81,.24-.68v-1.91l.98-1.83,.19-.73,.36-.46,2.47-1.35,.92-1.32,.67-2.74,.67-1.32,.9-1.04,.37-.66,.16-.88,.43-.53,5.9-1.7,1.2-.09,1.06-.33,.79-.83,1.4-2.17,.91-.49,2.63-.29,1.1-.49,.78-.85,.2-.73-.28-.82-.7-1.17,2.34,.49,2.71,.13v1.24l-1.19,1.88-3.39,1.1-1.28,.63-.15,.87,.28,.69,.6,2.15-.04,2.45-.5,1.5-.23,1.71,1.35,1.12,1.5-1.28,1.4,.08,.57,1.59-1.64,2.83-2.23,2.18-3.06,5.87-3.38,11.84-2.41,3.25-2.53-1.59-2.38-1.95-2.2-2.33-2.05-.6-.67,.63,.69,1.75-.05,2.92-.26,1.7-1.24,1.38-.27,.93-.36,.89-.82,.58-.91,.39-1.33,1.37-1.44,1.15-1.59,.72-1.61,.23-1.51,.64-.52,1.15,.37,1.38-.24,2.71-1.2,2.39-2.25,2.1-7.16,2.98-3.99,2.81,.11,2.48,.55,2.65-1.02,1.98-1.06,.52-1.47,.5-.78,1.75-.56,.71-.43,.8-2.79,1.05-.84,1.4-1.14,.57-.44-.27-.72,.27-1.18,.89-.97,1.13-.44,1.2-.48,1.03-.75,1.08-1,1.06-1.51-.06-1.64-.33-3.43-2.03-5.05,1.37-1.49,.83-1.74,1.21-1.22,1.8,.13,3.85-.4,.69-.36,.8,.25,2.48-2.25,3.08-2.93,3.09-.88,1.77,.18,2.02,.51,1.29-.89,.38-2.94,.39-4.33-.02-2.94,3.69,.49,2.6,.12,2.07-1.72,.46-1.4,1.06,.68,1.57-.94,1.11-4.58-1.51-3.99-3.83,2.72-4.7-1.12-6.92-1.01-1.04-1.38,.79-1.83-.39-1.55-1.46-1.73-2.87-1.48-3.06-.65-1.03,.38-2.51,.56-1.72,1.19,.05,3.97,1.52,1.28-.47,1.06-1.11-1.34-2.87-2.35-2.8,.67-2.98,1.41-3.25-.91-1.11-4.9-1.99-3.43-.92-.64-1.61,.57-1.68,.87-.18,.79-.26,.55-1.11,.72-.95,1.52-1.57,1.12,1.02,1.23,.69,1.22,1.55,.33,.34h1.98l.95-.15,.95-.37,.55-.4,.93-.89,.54-.26h.8l.8,.31,.62,.61,.25,.88-.12,.92-.32,.62-.99,1.04-.39,.88-.15,.81,.89,.57,1.44,.11,1.33-.66,.67-1.64,.42-1.58,1.03-.79,3.56,1.72,1.17-2.06,1.32-5.97-.55-2.97-1.55-1.47-9.04-4.03-.68-.95-.59-1.2-1.03-1.7-.78-2.06-.52-3.2-.75-3.12,.04-1.67-.92-1.18-2.59-2.54-4.26-.71-1.76-1.03-1.34-1.34-.68-2.09-1.96-.88-1.02-.11-.94-.22-.66-1.22-.9-3.17,.47-1.73,.02-1.68-1.63-2.04-.41-.93-.75-6.04-2.1-5.21-1.48-2.38-1.17-2.63-.04-2.22-.98-2.06,.14-1.72,.47-1.2-.65-1.38-.78-.92,.46-1.18,.7-1.02,1.76,.96,1.94,.58,.16-.97-1.39-1.2,.25-1.29,1.07-.53,1.25-1.99,.26-2.78,2.39-.98Z"/><path class="cls-1" d="M704.56,254.8l11.87,.59,1.38,.43,.74,.62-.8,.8v.51l.72,.34,1.09,1.17,.64,.53,.98,.37,1,.15,2.08-.02,.73,.24,1.14,1.06,.78,.24,1.82-.04,.74,.15,.88,.4,.94,.75,1.28,1.37,.93,1.52-.11,1.26-.5,.68-1.12,1.88-2.23,2.35-1.2,3.48-.82,1.85-2.13,1.5-.85,1.65-1.66,4.71-.65,1.19-.98,1.27-.45,.73-.19,.82,.44,1.76,.88,1.56,.62,1.64-.32,1.96-.96,1.01-1.19,.9-.58,1.19,1.48,3.18-.2,1.51-.7,1.48-.91,1.3-.33,1.56,.82,1.5,1.15,1.31,.61,1.02-.19,.85-.52,.73-.96,1.05-.26,.96-.14,1.66-.39,.99,.73,.26,.6,.54,.35,.8-.03,1.07-.41,.63-2.23,1.18-.26,.66,.05,4.9-.33,.61-6.68,7.47-6.04,5.37-1.04,.56-2.34-2.18-1.51-.34-1.49,.39-1.24,.92-.52,.25-.37-.16-.22,.05-.06,.9,.02,.4,.18,.8,.13,.36,1.1,1.17,.51,.85-.14,.87-1.04,1.89-.38,1.69-.05,4-.64,4.46-.81,2.24-1.87-3-2.72-.47-6.36-5.6-9.81-11.19-.18-5.82-5.27-3.49-1.09,3.95-12.63-7.58,1.02-1.98-.55-2.65-.11-2.48,3.99-2.81,7.16-2.98,2.25-2.1,1.2-2.39,.24-2.71-.37-1.38,.52-1.15,1.51-.64,1.61-.23,1.59-.72,1.44-1.15,1.33-1.37,.91-.39,.82-.58,.36-.89,.27-.93,1.24-1.38,.26-1.7,.05-2.92-.69-1.75,.67-.63,2.05,.6,2.2,2.33,2.38,1.95,2.53,1.59,2.41-3.25,3.38-11.84,3.06-5.87,2.23-2.18,1.64-2.83-.57-1.59-1.4-.08-1.5,1.28-1.35-1.12,.23-1.71,.5-1.5,.04-2.45-.6-2.15-.28-.69,.15-.87,1.28-.63,3.39-1.1,1.19-1.88v-1.24Z"/><path class="cls-1" d="M694.8,361.09l-.16,2.99-.42,1.26,.51,1.51-.48,1.11-.78,1.12-.43,1.53,4.09,.45,1.95,1,.83,1.93-3.23,3.34-1.4,3.85-.52,2.45-.73,.87-.94,.77-.91,.99-1.62-4.69-.44-2.45,.05-2.25,.31-1.26,.46-1.24,.52-1.1,.55-.85,.05-.89-.84-.62-1.11,.09-.78,1.18-.63-.3-1.8-1.25-.9-.35-9.35-.43-9.59-.26-.73-.29-.54-.52-.55-.17-1.53,1.4-10.97,5.4-8.13,3.92-.71,.93-.25,1.69-.62,1.68-.8,1.5-1.44,1.97-2.14,2.32-1.38,1.09-.2,.25-.65,2.11-.74,.97-.41,.87-.2,1-.05,1.34,.2,1.28,.51,.68,.67,.55,.67,.85,.43,1.56,.35,7.15,.19,1.49,.41,1.3,.38-.02,.36,.45,.97,.51,1.53,1.18,.43,.41,.77,.5,1.03,.03,2.02-.26,1.88,.49-.22,1.05-1.04,1.53-.62,1.89-.27,.59-.64,.6-.74,.45-1.36,.53-.46,.86-1.34,5.15v.29l.07,.37,.03,.45-.1,.52-.23,.16-.92,.39-.31,.21-.8,1.5-1.96,6.81-1.27,3.13-.81,1.3-.26,.72-.05,1.02,.11,1.95-.04,.52-.11,.37-.76,1.18-.17,.36-.93,2.66-1.46,2.88-2.38,3.48-2.58,2.4-.49,.23-.57-.28-.5-.61-.54-.35-.65,.46-1.5,2.16-.52,1.29-.21,1.56,.39-.68,.48-.53,.53-.33,.62-.09-3.8,7.82-.58,4.91-2.38-2.21-1.74-.94-6.31-.56-2.07-1.45-1.75-1.99,.1-2.33,.38-2.66-.21-2.4-1.64-4.15v-2.09l.39-1.27-.18-1.46-1.99-2.03-.68-.86-.25-1.15,.17-1.03-.37-.94-.43-.28-.48-.19-.97-.13-.86-.58-3.54-3.08-3.86,.16-1.19-.32-1.08-1.41-.21-.9,.06-.57,1.29-5.91,.64-5.16,2.74-9.91,.05-1.03,.3-.87,.49-.16,.24-.49-.9-1.66-.64-1.97,.36-1.17-.34-.98-.72-.19-.66-.48,.84-.82,1.2-.77,2.75-3.62,1.82-.91,1.92-.54,1.27-.91-.25-4.36,.25-2.34,.76-1.96-1.62-1.37-1.36-.6-.29-.96,.47-1.09,.26-1.17,1.25-1.03,.04-.64-.32-.5-.26-1.44-.64-1.56-3.99-1.1-1.77-2.79-.31-3.62,2.96-3.66,3.99,3.83,4.58,1.51,.94-1.11-.68-1.57,1.4-1.06,1.72-.46-.12-2.07-.49-2.6,2.94-3.69,4.33,.02,2.94-.39,.89-.38-.51-1.29-.18-2.02,.88-1.77,2.93-3.09,2.25-3.08-.25-2.48,.36-.8,.4-.69-.13-3.85,1.22-1.8,1.74-1.21,1.49-.83,5.05-1.37,3.43,2.03,1.64,.33,1.51,.06,1-1.06,.75-1.08,.48-1.03,.44-1.2,.97-1.13,1.18-.89,.72-.27,.44,.27,1.14-.57,.84-1.4,2.79-1.05,.43-.8,.56-.71,.78-1.75,1.47-.5,1.06-.52,12.63,7.58,1.09-3.95,5.27,3.49,.18,5.82,9.81,11.19,6.36,5.6,2.72,.47,1.87,3Z"/></svg>